<svg width="50" height="9" viewBox="0 0 50 9" fill="none" xmlns="http://www.w3.org/2000/svg">
<g clip-path="url(#clip0_2_2166)">
<path d="M1.09998 3.80005H49.1V5.10005H1.09998V3.80005Z" fill="black"/>
<path d="M5.3 9.00002C5.2 9.00002 5 9.00002 4.9 8.90002L0.7 5.90002C0.3 5.50002 0 5.00002 0 4.50002C0 4.00002 0.3 3.50002 0.7 3.20002L4.9 0.100024C5.2 -0.0999765 5.6 2.3514e-05 5.8 0.300024C6.1 0.600024 6 1.00002 5.7 1.20002L1.5 4.30002C1.4 4.40002 1.3 4.40002 1.3 4.50002C1.3 4.60002 1.4 4.70002 1.5 4.70002L5.7 7.70002C6 8.00002 6.1 8.40002 5.8 8.70002C5.7 8.90002 5.5 9.00002 5.3 9.00002Z" fill="black"/>
</g>
<defs>
<clipPath id="clip0_2_2166">
<rect width="49.1" height="9" fill="white"/>
</clipPath>
</defs>
</svg>
