<svg xmlns="http://www.w3.org/2000/svg" viewBox="0 0 352.85 167.02"><defs><style>.cls-1{fill:#fff;}</style></defs><g id="Слой_2" data-name="Слой 2"><g id="Слой_1-2" data-name="Слой 1"><path class="cls-1" d="M40.17,1.63A33,33,0,0,1,48,6.22a3.1,3.1,0,0,0,1.81.86q1.92,0,2.49-5.74h2.2q-.39,6.21-.38,22h-2.2A71.91,71.91,0,0,0,50,14.4a16,16,0,0,0-2.86-5.22,17.79,17.79,0,0,0-7.32-5.59,24.5,24.5,0,0,0-9.61-1.87A15.85,15.85,0,0,0,19.37,5.83Q14.74,10,12.15,17.55A55.61,55.61,0,0,0,9.56,35.39a51.44,51.44,0,0,0,2.78,17.89q2.77,7.45,7.7,11.33a17.57,17.57,0,0,0,11.14,3.88,24.59,24.59,0,0,0,9.28-1.82,15.61,15.61,0,0,0,7.08-5.45,18.46,18.46,0,0,0,2.77-5.74,66.75,66.75,0,0,0,1.63-9.38h2.2q0,16.45.38,23h-2.2a16.92,16.92,0,0,0-.81-4.35c-.35-.86-.85-1.29-1.49-1.29a4.12,4.12,0,0,0-2,.76,40.51,40.51,0,0,1-8.23,4.64,25.43,25.43,0,0,1-9.47,1.58A30.27,30.27,0,0,1,14.4,66.29,27.55,27.55,0,0,1,3.78,54.38Q0,46.58,0,35.77A42.91,42.91,0,0,1,3.87,17.12,30,30,0,0,1,14.68,4.5,28.27,28.27,0,0,1,30.42,0,25.9,25.9,0,0,1,40.17,1.63Z"/><path class="cls-1" d="M98.71,57.58a19,19,0,0,1-6.46,9A17.72,17.72,0,0,1,80.82,70.4a21.72,21.72,0,0,1-11.76-3.11,20.06,20.06,0,0,1-7.61-8.7,30.25,30.25,0,0,1-2.63-13A35.92,35.92,0,0,1,61.5,31.18a21.41,21.41,0,0,1,7.56-9.42,19.8,19.8,0,0,1,11.38-3.3q8.61,0,13.25,5.21T98.33,39.5H68.39a58.45,58.45,0,0,0-.29,6.12,27.19,27.19,0,0,0,2.06,11,17.57,17.57,0,0,0,5.45,7.23,11.73,11.73,0,0,0,7.13,2.53,15.05,15.05,0,0,0,8.13-2.2,16.59,16.59,0,0,0,5.93-7.36Zm-26.4-32.9q-3.25,4.39-4,13H89.14A27.47,27.47,0,0,0,87,25.25q-2.34-5-6.93-5T72.31,24.68Z"/><path class="cls-1" d="M145.1,65.57a7.7,7.7,0,0,0,4.21,1.48v2a34.88,34.88,0,0,1-5.93.67q-4,0-6.12-1.87A12,12,0,0,1,134,62.08c-.12-.45-.44-1.6-.95-3.45a46,46,0,0,0-1.82-5.31,21.22,21.22,0,0,0-2.3-4.25,10,10,0,0,0-5.21-3.78,26.28,26.28,0,0,0-8.56-.81V60.16q0,3.93,1.39,5.41t4.92,1.48v2c-5.35-.25-9-.38-10.8-.38s-5.52.13-11.39.38v-2q4,0,5.65-1.48t1.62-5.41V28.79q0-3.91-1.62-5.4T99.28,21.9v-2c5.87.25,9.66.38,11.39.38s5.45-.13,10.8-.38v2q-3.54,0-4.92,1.49t-1.39,5.4V42.85a19.13,19.13,0,0,0,7.7-1.77,10.83,10.83,0,0,0,4.3-3.87,32.94,32.94,0,0,0,2.92-6.6,57.69,57.69,0,0,1,2.44-6.32,11.92,11.92,0,0,1,3.25-4.06,8.54,8.54,0,0,1,5.6-1.77A6.22,6.22,0,0,1,146,20a5.15,5.15,0,0,1,1.48,3.73,5,5,0,0,1-1.39,3.64,4.9,4.9,0,0,1-3.68,1.43,5.15,5.15,0,0,1-4.06-1.67,6.47,6.47,0,0,1-1.49-4.45V22a5.53,5.53,0,0,0-2.44,2.68q-1,2-3.1,7.55a30.46,30.46,0,0,1-3.4,6.79,10.1,10.1,0,0,1-5.21,3.64,26.4,26.4,0,0,1,8.89,1.67,12.37,12.37,0,0,1,5.84,4.93,26.64,26.64,0,0,1,2.05,4.4l1.29,3.44a47,47,0,0,0,1.73,4.69A10.23,10.23,0,0,0,145.1,65.57Z"/><path class="cls-1" d="M187.33,21.23a18.19,18.19,0,0,1,6.36,8.13A32.49,32.49,0,0,1,196,42.18,39.92,39.92,0,0,1,193.64,56a23.54,23.54,0,0,1-7.27,10.42,18.79,18.79,0,0,1-12.29,4,14.93,14.93,0,0,1-6.6-1.44,11.63,11.63,0,0,1-4.59-3.73V77.48c0,2.61.76,4.41,2.3,5.4s3.82,1.48,6.88,1.48v2l-2.2-.09c-5.93-.2-9.79-.29-11.57-.29-1.53,0-5,.13-10.33.38v-2q3.54,0,4.92-1.29t1.39-4.64V30.23c0-2.94-.54-5.07-1.63-6.41s-3-2-5.64-2v-2c2,.19,4,.29,5.93.29a31.36,31.36,0,0,0,9.95-1.34V28.89a17,17,0,0,1,6.12-7.7,16.63,16.63,0,0,1,18.32,0Zm-.62,22.29q0-22.18-11.1-22.19a11.29,11.29,0,0,0-7.75,3.11,17.78,17.78,0,0,0-5,8.94v28.7a10.72,10.72,0,0,0,3.92,4.44A11.14,11.14,0,0,0,173,68.2Q186.71,68.2,186.71,43.52Z"/><path class="cls-1" d="M238.45,57.58a19.06,19.06,0,0,1-6.45,9,17.76,17.76,0,0,1-11.43,3.78,21.78,21.78,0,0,1-11.77-3.11,20,20,0,0,1-7.6-8.7,30.1,30.1,0,0,1-2.63-13,35.92,35.92,0,0,1,2.67-14.44,21.41,21.41,0,0,1,7.56-9.42,19.83,19.83,0,0,1,11.38-3.3q8.61,0,13.25,5.21t4.64,15.83H208.13a58.45,58.45,0,0,0-.29,6.12,27.19,27.19,0,0,0,2.06,11,17.57,17.57,0,0,0,5.45,7.23,11.75,11.75,0,0,0,7.13,2.53,15.05,15.05,0,0,0,8.13-2.2,16.52,16.52,0,0,0,5.93-7.36Zm-26.4-32.9q-3.26,4.39-4,13h20.85a27.46,27.46,0,0,0-2.16-12.44q-2.34-5-6.93-5T212.05,24.68Z"/><path class="cls-1" d="M285.51,31a48.29,48.29,0,0,0,.29,5.93h-2.2a29.71,29.71,0,0,0-2-9.66,8.08,8.08,0,0,0-4-4.35,17.57,17.57,0,0,0-6.84-1.1h-3.73v37.4q0,4.4,2.54,6.12c1.68,1.15,4.22,1.72,7.6,1.72v2L274.8,69q-9.46-.28-12.05-.28T250.7,69l-2.4.1v-2q5.07,0,7.61-1.72t2.53-6.12V21.81h-4.68a15.49,15.49,0,0,0-6.51,1.1,7.6,7.6,0,0,0-3.58,4.35A34.31,34.31,0,0,0,241.9,37h-2.2a48.74,48.74,0,0,0,.28-5.93,105.86,105.86,0,0,0-.67-11.1h9.19q4.4,0,6.69.1l7.46.09q2.58,0,7.56-.19L277,19.9h9.18A105.53,105.53,0,0,0,285.51,31Z"/><path class="cls-1" d="M322.57,44.05a12,12,0,0,1,4.64,10,13.49,13.49,0,0,1-2.1,7.22,15.35,15.35,0,0,1-6.74,5.6,27.59,27.59,0,0,1-11.82,2.2c-.7,0-2.13-.06-4.3-.19s-4.11-.19-5.45-.19q-2.49,0-11.29.38v-2q4,0,5.64-1.48t1.63-5.41V28.79q0-3.91-1.39-5.4t-4.92-1.49v-2q8,.38,10.71.38t11.48-.38v2q-4,0-5.65,1.49t-1.62,5.4V40.36H308Q317.94,40.36,322.57,44.05Zm-7.17,19.6q2.82-3.39,2.82-9,0-6.6-3.73-9.62t-12.14-3h-1V60.16q0,3.83.91,5.36a3.4,3.4,0,0,0,3.2,1.53Q312.58,67.05,315.4,63.65Zm31.8,1.92q1.64,1.49,5.65,1.48v2q-8.81-.37-11.67-.38-2.49,0-10.52.38v-2q3.54,0,4.92-1.48T337,60.16V28.79q0-3.91-1.39-5.4t-4.92-1.49v-2q8,.38,10.52.38c1.78,0,5.36-.13,10.71-.38v2q-3.54,0-4.92,1.49t-1.39,5.4V60.16Q345.58,64.09,347.2,65.57Z"/><path class="cls-1" d="M108,126.85a9.66,9.66,0,0,1,4.11,8.32,12,12,0,0,1-5.12,10Q101.86,149,90.67,149q-1.82,0-5.83-.2c-2.93-.12-5.26-.19-7-.19s-5.42.13-11.29.39v-2q4,0,5.64-1.49t1.63-5.4V108.77q0-3.93-1.63-5.41c-1.08-1-3-1.48-5.64-1.48v-2c5.87.26,9.63.38,11.29.38s4.11-.06,7.17-.19c2.55-.12,4.34-.19,5.36-.19,6.69,0,11.48,1,14.34,3a10.13,10.13,0,0,1,.63,16.11q-3.69,3.25-10.67,4.4Q103.87,123.88,108,126.85ZM84,103.41q-1.53,1.53-1.53,5.36v14.35h3.82a25.68,25.68,0,0,0,8.66-1.3,7.4,7.4,0,0,0,4.16-3.49,13.71,13.71,0,0,0,1.15-6.12q0-5-2.3-7.65c-1.53-1.79-4.36-2.68-8.51-2.68Q85.51,101.88,84,103.41Zm16.16,40.41a12.08,12.08,0,0,0,3-8.56q0-5.73-3.16-8.13c-2.1-1.59-5.07-2.39-8.89-2.39H82.45v15.4c0,2.68.52,4.5,1.58,5.45S87,147,89.72,147Q97.18,147,100.14,143.82Z"/><path class="cls-1" d="M158.3,145.54a7.67,7.67,0,0,0,4.21,1.49v2a34.88,34.88,0,0,1-5.93.67,9,9,0,0,1-6.13-1.87,12.11,12.11,0,0,1-3.25-5.79c-.13-.44-.44-1.59-.95-3.44a47.31,47.31,0,0,0-1.82-5.31,20.68,20.68,0,0,0-2.3-4.25,10,10,0,0,0-5.21-3.78,26.52,26.52,0,0,0-8.56-.82v15.69q0,3.93,1.39,5.4t4.92,1.49v2c-5.35-.26-9-.39-10.81-.39s-5.51.13-11.38.39v-2q4,0,5.64-1.49t1.63-5.4V108.77q0-3.93-1.63-5.41c-1.08-1-3-1.48-5.64-1.48v-2c5.87.26,9.66.38,11.38.38s5.46-.12,10.81-.38v2c-2.36,0-4,.5-4.92,1.48s-1.39,2.79-1.39,5.41v14.06a19.13,19.13,0,0,0,7.7-1.77,10.9,10.9,0,0,0,4.3-3.87,33.37,33.37,0,0,0,2.92-6.61,57.4,57.4,0,0,1,2.44-6.31,11.92,11.92,0,0,1,3.25-4.06,8.54,8.54,0,0,1,5.6-1.77,6.22,6.22,0,0,1,4.64,1.53,5.19,5.19,0,0,1,1.48,3.73,5,5,0,0,1-1.39,3.63,4.87,4.87,0,0,1-3.68,1.44,5.16,5.16,0,0,1-4.07-1.68,6.42,6.42,0,0,1-1.48-4.44V102a5.51,5.51,0,0,0-2.44,2.67c-.67,1.34-1.7,3.86-3.11,7.56a30.28,30.28,0,0,1-3.39,6.79,10.1,10.1,0,0,1-5.21,3.64,26.16,26.16,0,0,1,8.89,1.67,12.37,12.37,0,0,1,5.84,4.93,25.88,25.88,0,0,1,2,4.4l1.29,3.44q1,3,1.72,4.69A10.22,10.22,0,0,0,158.3,145.54Z"/><path class="cls-1" d="M205.36,99.78v1.91a5.4,5.4,0,0,0-3.4,1.72,15.06,15.06,0,0,0-2.82,5l-15.69,41.12-3.25,8.33a17,17,0,0,1-4.11,6.69,8.34,8.34,0,0,1-3.45,1.91,14.2,14.2,0,0,1-4,.58,7,7,0,0,1-4.69-1.53,5.22,5.22,0,0,1-1.82-4.21,5.08,5.08,0,0,1,1.34-3.68,4.93,4.93,0,0,1,3.73-1.39,5.14,5.14,0,0,1,3.49,1.2,4.09,4.09,0,0,1,1.39,3.3,4.64,4.64,0,0,1-2.58,4.3,1.35,1.35,0,0,0,.57.1q5.26,0,8.13-7.47l3.35-8.7-17.31-41.8a10.9,10.9,0,0,0-3.25-4.3,6,6,0,0,0-3.26-1v-2a68.93,68.93,0,0,0,9.38.57q4.77,0,12.43-.57v2a16,16,0,0,0-5,.57c-1,.38-1.58,1.31-1.58,2.77a12.1,12.1,0,0,0,1.15,4.69l11.48,28.5,10.61-27.64a13.85,13.85,0,0,0,1.06-4.4,3.55,3.55,0,0,0-1.72-3.25,12.77,12.77,0,0,0-5.46-1.34V99.78q5.07.28,8,.28Q202.29,100.06,205.36,99.78Z"/><path class="cls-1" d="M236.54,101.5q4.5,3,4.5,7.36a5.31,5.31,0,0,1-1.44,3.93,5,5,0,0,1-3.63,1.43,5.59,5.59,0,0,1-3.73-1.29,4.34,4.34,0,0,1-1.53-3.49,5.19,5.19,0,0,1,1.14-3.4,5.62,5.62,0,0,1,2.87-1.86,7.19,7.19,0,0,0-3.39-2.87,12.06,12.06,0,0,0-5.22-1.15,10.92,10.92,0,0,0-6.6,2.25q-3.06,2.25-5.07,7.46t-2,13.72q0,11.86,3.82,17.27a11.7,11.7,0,0,0,10,5.4,14.06,14.06,0,0,0,7.8-2.39,17.5,17.5,0,0,0,6.07-7.46l1.82.67a19.9,19.9,0,0,1-6.08,9.37q-4.44,3.93-11.52,3.93a19.68,19.68,0,0,1-10.76-3.07,20.78,20.78,0,0,1-7.61-8.84A30.76,30.76,0,0,1,203.16,125,32.16,32.16,0,0,1,206,111.25a22.61,22.61,0,0,1,7.89-9.42,20.34,20.34,0,0,1,11.57-3.39A19.85,19.85,0,0,1,236.54,101.5Z"/><path class="cls-1" d="M245.58,146.69c-2-2-2.92-4.79-2.92-8.37a10.58,10.58,0,0,1,2.34-7.07,17.64,17.64,0,0,1,5.55-4.4A68,68,0,0,1,259,123.4a44.1,44.1,0,0,0,7.94-3.35,4.61,4.61,0,0,0,2.58-4.11V110q0-5.55-2.35-7.6a9.6,9.6,0,0,0-6.55-2.06q-6.69,0-9.47,3.44a6,6,0,0,1,3.21,2,5.74,5.74,0,0,1,1.29,3.83,4.86,4.86,0,0,1-1.53,3.78,5.64,5.64,0,0,1-3.92,1.38,4.82,4.82,0,0,1-4-1.67,7,7,0,0,1-.24-7.89,13.4,13.4,0,0,1,3.3-3.06,19.56,19.56,0,0,1,5.84-2.68,27.08,27.08,0,0,1,7.74-1q7.47,0,11.29,3.54a10.74,10.74,0,0,1,3.2,5.31,33.33,33.33,0,0,1,.82,8.17v26.59a6.64,6.64,0,0,0,.67,3.45,2.5,2.5,0,0,0,2.29,1.05,4.56,4.56,0,0,0,2.15-.53,12.48,12.48,0,0,0,2.16-1.48l1.05,1.63a23.59,23.59,0,0,1-4.26,2.72,10.69,10.69,0,0,1-4.45.82c-3.06,0-5.19-.77-6.41-2.3a9.75,9.75,0,0,1-1.81-6.22,16.63,16.63,0,0,1-6.6,6.65,18.61,18.61,0,0,1-8.42,1.87Q248.49,149.71,245.58,146.69Zm24-8.08V119.86a6.6,6.6,0,0,1-2.39,2.2c-1,.58-2.59,1.34-4.69,2.3a42.77,42.77,0,0,0-5.88,2.92,12.87,12.87,0,0,0-3.88,3.77,10.73,10.73,0,0,0-1.62,6.13q0,4.29,2.1,6.5a7.31,7.31,0,0,0,5.55,2.2Q265,145.88,269.54,138.61Z"/></g></g></svg>